<?xml version="1.0" encoding="UTF-8"?>
<svg width="512" height="512" viewBox="0 0 512 512" fill="none" xmlns="http://www.w3.org/2000/svg">
  <rect width="512" height="512" rx="100" fill="url(#gradient)" />
  <path d="M320 160C320 140 310 120 290 110C270 100 240 100 220 110C200 120 190 140 190 160L190 200C190 220 200 240 220 250C240 260 270 260 290 250C310 240 320 220 320 200M190 350C190 370 200 390 220 400C240 410 270 410 290 400C310 390 320 370 320 350L320 310C320 290 310 270 290 260C270 250 240 250 220 260C200 270 190 290 190 310" 
        stroke="white" 
        stroke-width="40" 
        stroke-linecap="round"
        fill="none" />
  <defs>
    <linearGradient id="gradient" x1="0" y1="0" x2="512" y2="512" gradientUnits="userSpaceOnUse">
      <stop offset="0%" style="stop-color:#8B5CF6"/>
      <stop offset="100%" style="stop-color:#3B82F6"/>
    </linearGradient>
  </defs>
</svg> 